# xmcd
#
# Track frame offsets:
#	150
#	14695
#	28730
#	46707
#	61272
#	76720
#	91060
#	108827
#	122797
#	140627
#	159525
#	175232
#	192755
#	206702
#
# Disc length: 3003 seconds
#
# Revision: 1
# Processed by: cddbd v1.5.2PL0 Copyright (c) Steve Scherf et al.
# Submitted via: audiograbber 1.83.01
#
DISCID=b20bb90e
DTITLE=Various Artist - SD070
DYEAR=1900
DGENRE=Country
TTITLE0=Faith Hill - The Way You Love Me
TTITLE1=Garth Brooks - Do What You Gotta Do
TTITLE2=Trisha Yearwood - Real Live Woman
TTITLE3=Clint Black/Steve Warniner - Been There
TTITLE4=John Michael Montgomery - Nothing Catches Jesus By Surprise
TTITLE5=Yankee Grey - Another Nine Minutes
TTITLE6=Shane Minor - I Think You're Beautiful
TTITLE7=Joe Diffie - It's Always Somethin'
TTITLE8=Sammy kershaw - Me And Maxine
TTITLE9=Jessica Andrews - Unbreakable Heart
TTITLE10=The Wilkinsons - Jimmy's Got A Girlfriend
TTITLE11=Jennifer Day - The Fun Of Your Love
TTITLE12=Trace Adkins - More
TTITLE13=Vince Gill - Let's Make Sure We kiss Goodbye
EXTD=MediaType: Karaoke CD+G Producer: StarDisc
EXTT0=
EXTT1=
EXTT2=
EXTT3=
EXTT4=
EXTT5=
EXTT6=
EXTT7=
EXTT8=
EXTT9=
EXTT10=
EXTT11=
EXTT12=
EXTT13=
PLAYORDER=
